<svg width="170" height="144" viewBox="0 0 170 144" fill="none" xmlns="http://www.w3.org/2000/svg">
<path d="M41.7853 67.1578C36.2872 67.1578 31.8887 72.2555 31.8887 78.4615C31.8887 80.8996 32.5485 83.3377 33.868 85.1108L29.2497 90.4303C27.7102 89.1004 25.7309 88.4355 23.5317 88.6571C22.2122 88.6571 20.8926 89.322 19.5731 90.2086L14.075 83.5593C14.7348 82.0078 15.1746 80.2347 15.1746 78.2399C15.1746 76.2451 14.7348 74.472 14.075 72.9205L19.3532 66.2712C20.4528 67.1578 21.9922 67.8227 23.5317 67.8227C28.5899 68.266 32.7684 63.8331 33.2083 58.2921C33.6481 52.751 29.9094 47.6532 25.0711 47.4316C23.5317 47.2099 22.2122 47.6532 20.8926 48.3181L17.8137 42.9987C18.0336 42.5554 18.4735 42.3338 18.6934 41.8905C21.3325 37.9009 21.1125 33.4681 18.4735 32.1382C17.8137 31.9166 17.3739 31.6949 16.7141 31.6949C14.295 31.6949 10.9961 33.6897 9.01682 36.7927C6.37775 40.7823 6.59767 45.2151 9.23674 46.545C10.9961 47.4316 13.4153 46.7666 15.3946 45.2151L18.2536 50.3129C16.7141 52.0861 15.6145 54.3025 15.3946 56.9622C15.1746 59.6219 15.8344 62.06 17.1539 63.8331L12.0957 70.0391C10.7762 68.9309 9.23674 68.266 7.69728 68.266C3.51876 68.266 0 72.6988 0 78.2399C0 83.781 3.51876 88.2138 7.69728 88.2138C9.45666 88.2138 10.9961 87.5489 12.0957 86.219L17.3739 92.6467C16.0543 94.6415 15.3946 96.8579 15.6145 99.5176C16.0543 105.059 20.4528 109.492 25.2911 109.048C30.3493 108.605 33.868 103.729 33.4282 98.1878C33.2083 96.193 32.5485 94.4198 31.6688 92.8683L36.0673 87.5489C37.6067 88.8787 39.586 89.5437 41.5653 89.5437C47.0634 89.5437 51.4618 84.4459 51.4618 78.2399C51.6818 72.0339 47.2833 67.1578 41.7853 67.1578ZM33.6481 24.3807C36.0673 22.1643 37.3868 19.0613 37.3868 16.8449L43.7645 12.1904C45.5239 12.8553 47.9431 12.6336 50.5821 11.5254C54.7607 9.53064 57.6197 5.54107 56.74 2.65971C56.0802 0.886571 54.3208 0 51.9017 0C50.5821 0 49.0427 0.443285 47.2833 1.10821C43.1048 3.103 40.2458 6.87093 41.1255 9.75228L35.6274 13.7419C33.4282 11.9687 29.2497 12.8553 25.9508 15.9583C22.4321 19.2829 21.1125 23.9374 23.3118 26.1538C25.511 28.5919 30.1294 27.7053 33.6481 24.3807ZM71.4748 49.4263L78.2924 43.2203C80.0518 44.3286 82.251 44.9935 84.6701 44.9935C87.0893 44.9935 89.2885 44.3286 91.0479 43.2203L97.8655 49.4263C95.2264 53.6376 95.6662 59.6219 99.4049 63.3898C103.144 67.1578 108.862 67.8227 113.26 64.9413L119.198 71.8123C118.098 73.5854 117.439 75.8018 117.439 78.2399C117.439 84.4459 121.837 89.5437 127.335 89.5437C132.833 89.5437 137.232 84.4459 137.232 78.2399C137.232 72.0339 132.833 66.9361 127.335 66.9361C125.136 66.9361 123.157 67.8227 121.617 69.1525L115.899 62.5033C119.418 58.0704 119.198 51.6428 115.019 47.6532C110.841 43.442 104.683 43.2203 100.285 46.7666L93.6869 40.7823C95.0065 39.2308 95.8862 37.236 95.8862 35.0196C95.8862 29.4785 90.8279 25.0456 84.6701 25.0456C78.5123 25.0456 73.4541 29.4785 73.4541 35.0196C73.4541 37.236 74.3338 39.2308 75.6533 40.7823L69.0556 46.7666C65.097 43.442 59.599 43.2203 55.6404 46.1017L51.4618 41.6688C53.881 38.5658 54.3208 34.3546 52.7814 31.2516L58.4994 26.3755C61.7982 29.0352 67.0763 28.8136 71.0349 25.4889C75.2135 21.721 76.0931 15.7366 72.7943 11.9687C71.0349 9.97393 68.8357 9.08735 66.1966 9.08735C63.7775 9.08735 61.1384 9.97392 59.1591 11.7471C55.4204 15.0717 54.3208 20.1695 56.3001 23.7158L50.5821 28.8136C47.0634 25.9322 41.3454 26.3755 37.6067 30.3651C33.6481 34.3546 33.4282 40.5606 36.947 44.1069C40.0259 47.2099 45.0841 47.2099 49.0427 44.3286L53.2212 48.7614C49.9224 53.1943 50.1423 59.4003 54.3208 63.6115C58.7193 68.0443 65.7568 68.0443 70.1552 63.6115C73.8939 59.8435 74.3338 53.8592 71.4748 49.4263ZM159.004 109.713C157.464 109.048 155.265 109.492 153.286 110.821L151.087 106.61C152.846 104.837 153.946 102.399 154.166 99.5176C154.605 93.9765 150.867 88.8788 146.028 88.6571H145.369C140.75 88.6571 136.572 92.8683 136.132 98.1878C135.912 100.404 136.572 102.621 137.451 104.394L130.854 111.265C127.335 109.048 122.057 109.935 118.758 113.481C114.799 117.471 114.58 123.677 118.098 127.223C120.957 130.104 125.576 130.326 129.314 127.888L134.153 134.094C131.294 137.197 130.414 140.965 131.953 142.738C132.613 143.403 133.493 143.846 134.373 143.846C136.352 143.846 138.991 142.516 141.41 140.522C144.929 137.197 146.468 132.764 144.709 130.769C143.169 128.996 139.871 129.661 136.572 131.877L131.734 125.893C134.812 122.347 135.472 117.249 133.053 113.924L139.431 107.275C140.75 108.383 142.29 109.048 144.049 109.27C145.369 109.27 146.688 109.048 147.788 108.605L150.207 113.481C149.767 113.924 149.547 114.368 149.107 115.033C146.688 119.022 146.908 123.455 149.547 124.785C152.186 126.115 156.365 123.677 158.784 119.687C161.863 115.254 161.643 111.043 159.004 109.713ZM162.083 68.4876C160.323 68.4876 158.784 69.3742 157.684 70.4824L152.186 63.8331C153.286 62.06 153.946 59.6219 153.946 57.1838C153.726 54.7458 152.846 52.5293 151.527 50.9778L154.166 46.9883C156.365 48.7614 159.004 49.4263 160.763 48.3181C163.402 46.7666 163.402 41.8905 160.763 37.9009C158.784 34.7979 155.925 32.8031 153.506 32.8031C152.846 32.8031 151.966 33.0248 151.527 33.4681C148.887 35.0196 148.887 39.8957 151.527 43.8853C151.746 44.1069 151.746 44.3286 151.966 44.5502L149.107 48.9831C147.788 48.0965 146.028 47.6532 144.489 47.8748C139.431 48.3181 135.912 53.1943 136.352 58.7353C136.792 64.2764 141.19 68.7093 146.028 68.266C147.568 68.0443 149.107 67.6011 150.207 66.4928L156.145 73.5854C155.485 75.1369 155.045 76.6884 155.045 78.4615C155.045 84.0026 158.344 88.4355 162.523 88.4355C166.701 88.4355 170 84.0026 170 78.4615C169.56 72.9205 166.261 68.4876 162.083 68.4876ZM115.019 93.09C111.061 89.1004 104.903 88.6571 100.505 91.9818L94.1268 85.5541C95.6662 83.5593 96.5459 81.1213 96.5459 78.2399C96.5459 71.5906 91.2678 66.2712 84.6701 66.2712C78.0724 66.2712 72.7943 71.5906 72.7943 78.2399C72.7943 84.8892 78.0724 90.2086 84.6701 90.2086C87.3092 90.2086 89.7283 89.322 91.9276 87.7705L98.3053 94.1982C95.4463 97.9661 95.4463 103.286 98.0854 107.275L91.7076 113.481C89.7283 112.151 87.3092 111.265 84.6701 111.265C78.5123 111.265 73.4541 115.698 73.4541 121.239C73.4541 126.78 78.5123 131.213 84.6701 131.213C90.8279 131.213 95.8862 126.78 95.8862 121.239C95.8862 119.244 95.2264 117.471 94.1268 115.919L100.505 109.713C104.903 113.259 111.281 112.816 115.239 108.827C119.418 104.615 119.418 97.5228 115.019 93.09Z" fill="url(#paint0_linear_18_1415)"/>
<defs>
<linearGradient id="paint0_linear_18_1415" x1="73.4673" y1="72.3538" x2="137.382" y2="143.216" gradientUnits="userSpaceOnUse">
<stop stop-color="#0081FB"/>
<stop offset="1" stop-color="#3A348A"/>
</linearGradient>
</defs>
</svg>